<svg width="426" height="165" viewBox="0 0 426 165" fill="none" xmlns="http://www.w3.org/2000/svg">
<g filter="url(#filter0_d_1_41)">
<path d="M17.05 8.49V57H5.85V8.49H17.05ZM46.1388 18.64C49.0322 18.64 51.2955 19.62 52.9288 21.58C54.6088 23.4933 55.4488 26.13 55.4488 29.49V57H44.6688V30.96C44.6688 29.42 44.4355 28.3467 43.9688 27.74C43.5488 27.0867 42.8955 26.76 42.0088 26.76C41.0755 26.76 40.1655 27.1567 39.2788 27.95C38.4388 28.6967 37.5522 29.8167 36.6188 31.31V57H25.8388V19.83H35.2888L36.0588 24.24C37.4122 22.3733 38.9055 20.9733 40.5388 20.04C42.1722 19.1067 44.0388 18.64 46.1388 18.64ZM76.0578 18.64C78.5311 18.64 80.8411 19.0367 82.9878 19.83C85.1345 20.6233 87.0245 21.7433 88.6578 23.19L84.7378 29.07C81.9378 27.25 79.3011 26.34 76.8278 26.34C75.5211 26.34 74.5178 26.62 73.8178 27.18C73.1178 27.6933 72.7678 28.4167 72.7678 29.35C72.7678 30.05 72.9311 30.6567 73.2578 31.17C73.6311 31.6367 74.3078 32.1267 75.2878 32.64C76.2678 33.1067 77.7378 33.69 79.6978 34.39C83.1511 35.5567 85.6945 37.0267 87.3278 38.8C89.0078 40.5733 89.8478 42.9767 89.8478 46.01C89.8478 49.7433 88.4245 52.7067 85.5778 54.9C82.7311 57.0933 79.0911 58.19 74.6578 58.19C71.8111 58.19 69.1511 57.7 66.6778 56.72C64.2511 55.74 62.1745 54.41 60.4478 52.73L65.5578 46.99C68.4511 49.3233 71.3445 50.49 74.2378 50.49C75.6845 50.49 76.8045 50.1867 77.5978 49.58C78.4378 48.9267 78.8578 48.04 78.8578 46.92C78.8578 46.0333 78.6711 45.31 78.2978 44.75C77.9711 44.19 77.3178 43.6533 76.3378 43.14C75.4045 42.6267 73.9345 42.02 71.9278 41.32C68.5211 40.1533 66.0245 38.6833 64.4378 36.91C62.8978 35.09 62.1278 32.8033 62.1278 30.05C62.1278 27.9033 62.6878 25.9667 63.8078 24.24C64.9278 22.5133 66.5378 21.16 68.6378 20.18C70.7378 19.1533 73.2111 18.64 76.0578 18.64ZM115.851 18.64C119.958 18.64 123.038 20.3433 125.091 23.75C127.191 27.1567 128.241 32.01 128.241 38.31C128.241 42.23 127.681 45.7067 126.561 48.74C125.488 51.7267 123.948 54.06 121.941 55.74C119.935 57.3733 117.578 58.19 114.871 58.19C111.651 58.19 108.968 56.9067 106.821 54.34V71.35L96.0412 72.47V19.83H105.631L106.121 23.89C108.641 20.39 111.885 18.64 115.851 18.64ZM111.651 50.21C115.291 50.21 117.111 46.29 117.111 38.45C117.111 33.9233 116.691 30.82 115.851 29.14C115.058 27.4133 113.868 26.55 112.281 26.55C110.181 26.55 108.361 27.9267 106.821 30.68V47.13C108.175 49.1833 109.785 50.21 111.651 50.21ZM146.229 19.83V57H135.449V19.83H146.229ZM140.769 0.439998C142.589 0.439998 144.082 1.02333 145.249 2.19C146.462 3.35666 147.069 4.80333 147.069 6.53C147.069 8.30333 146.462 9.77333 145.249 10.94C144.082 12.1067 142.589 12.69 140.769 12.69C138.949 12.69 137.456 12.1067 136.289 10.94C135.122 9.77333 134.539 8.30333 134.539 6.53C134.539 4.80333 135.122 3.35666 136.289 2.19C137.456 1.02333 138.949 0.439998 140.769 0.439998ZM174.004 18.78C175.218 18.78 176.291 18.9667 177.224 19.34L175.474 29.7C174.494 29.42 173.514 29.28 172.534 29.28C170.621 29.28 169.151 30.0267 168.124 31.52C167.098 32.9667 166.304 35.1367 165.744 38.03V57H154.964V19.83H164.414L165.254 26.34C166.094 23.9133 167.261 22.0467 168.754 20.74C170.248 19.4333 171.998 18.78 174.004 18.78ZM207.318 46.71C207.318 47.97 207.482 48.9033 207.808 49.51C208.135 50.1167 208.695 50.5833 209.488 50.91L207.248 57.98C205.102 57.7933 203.352 57.3033 201.998 56.51C200.645 55.7167 199.595 54.48 198.848 52.8C196.562 56.3933 193.225 58.19 188.838 58.19C185.478 58.19 182.795 57.14 180.788 55.04C178.828 52.8933 177.848 50.07 177.848 46.57C177.848 42.51 179.202 39.4067 181.908 37.26C184.662 35.1133 188.628 34.04 193.808 34.04H196.748V32.29C196.748 30.0967 196.352 28.58 195.558 27.74C194.765 26.8533 193.365 26.41 191.358 26.41C189.072 26.41 186.155 27.04 182.608 28.3L180.158 21.37C182.212 20.4833 184.405 19.8067 186.738 19.34C189.072 18.8733 191.242 18.64 193.248 18.64C198.055 18.64 201.602 19.7133 203.888 21.86C206.175 24.0067 207.318 27.2733 207.318 31.66V46.71ZM192.058 50.49C193.038 50.49 193.925 50.1867 194.718 49.58C195.558 48.9733 196.235 48.11 196.748 46.99V40.06H194.788C192.595 40.06 190.985 40.5267 189.958 41.46C188.932 42.3467 188.418 43.7467 188.418 45.66C188.418 47.2467 188.722 48.46 189.328 49.3C189.982 50.0933 190.892 50.49 192.058 50.49ZM237.843 55.25C236.583 56.1833 235.113 56.9067 233.433 57.42C231.8 57.9333 230.143 58.19 228.463 58.19C224.683 58.19 221.836 57.1167 219.923 54.97C218.01 52.8233 217.053 49.8133 217.053 45.94V27.32H212.573V19.83H217.053V11.78L227.833 10.52V19.83H235.463L234.343 27.32H227.833V45.8C227.833 48.3667 228.813 49.65 230.773 49.65C231.846 49.65 233.013 49.3 234.273 48.6L237.843 55.25ZM252.932 19.83V57H242.152V19.83H252.932ZM247.472 0.439998C249.292 0.439998 250.786 1.02333 251.952 2.19C253.166 3.35666 253.772 4.80333 253.772 6.53C253.772 8.30333 253.166 9.77333 251.952 10.94C250.786 12.1067 249.292 12.69 247.472 12.69C245.652 12.69 244.159 12.1067 242.992 10.94C241.826 9.77333 241.242 8.30333 241.242 6.53C241.242 4.80333 241.826 3.35666 242.992 2.19C244.159 1.02333 245.652 0.439998 247.472 0.439998ZM276.718 18.64C281.944 18.64 286.028 20.3433 288.968 23.75C291.954 27.11 293.448 32.01 293.448 38.45C293.448 44.61 291.954 49.44 288.968 52.94C285.981 56.44 281.898 58.19 276.718 58.19C271.491 58.19 267.408 56.4867 264.468 53.08C261.528 49.6733 260.058 44.7733 260.058 38.38C260.058 32.1733 261.528 27.3433 264.468 23.89C267.454 20.39 271.538 18.64 276.718 18.64ZM276.718 26.62C274.804 26.62 273.404 27.53 272.518 29.35C271.631 31.17 271.188 34.18 271.188 38.38C271.188 42.6733 271.631 45.73 272.518 47.55C273.404 49.37 274.804 50.28 276.718 50.28C278.631 50.28 280.031 49.37 280.918 47.55C281.851 45.6833 282.318 42.65 282.318 38.45C282.318 34.1567 281.874 31.1233 280.988 29.35C280.101 27.53 278.678 26.62 276.718 26.62ZM320.76 18.64C323.654 18.64 325.917 19.62 327.55 21.58C329.23 23.4933 330.07 26.13 330.07 29.49V57H319.29V30.96C319.29 29.42 319.057 28.3467 318.59 27.74C318.17 27.0867 317.517 26.76 316.63 26.76C315.697 26.76 314.787 27.1567 313.9 27.95C313.06 28.6967 312.174 29.8167 311.24 31.31V57H300.46V19.83H309.91L310.68 24.24C312.034 22.3733 313.527 20.9733 315.16 20.04C316.794 19.1067 318.66 18.64 320.76 18.64ZM16.42 103.83V141H5.64V103.83H16.42ZM10.96 84.44C12.78 84.44 14.2733 85.0233 15.44 86.19C16.6533 87.3567 17.26 88.8033 17.26 90.53C17.26 92.3033 16.6533 93.7733 15.44 94.94C14.2733 96.1067 12.78 96.69 10.96 96.69C9.14 96.69 7.64667 96.1067 6.48 94.94C5.31333 93.7733 4.73 92.3033 4.73 90.53C4.73 88.8033 5.31333 87.3567 6.48 86.19C7.64667 85.0233 9.14 84.44 10.96 84.44ZM37.2652 102.64C39.7386 102.64 42.0486 103.037 44.1952 103.83C46.3419 104.623 48.2319 105.743 49.8652 107.19L45.9452 113.07C43.1452 111.25 40.5086 110.34 38.0352 110.34C36.7286 110.34 35.7252 110.62 35.0252 111.18C34.3252 111.693 33.9752 112.417 33.9752 113.35C33.9752 114.05 34.1386 114.657 34.4652 115.17C34.8386 115.637 35.5152 116.127 36.4952 116.64C37.4752 117.107 38.9452 117.69 40.9052 118.39C44.3586 119.557 46.9019 121.027 48.5352 122.8C50.2152 124.573 51.0552 126.977 51.0552 130.01C51.0552 133.743 49.6319 136.707 46.7852 138.9C43.9386 141.093 40.2986 142.19 35.8652 142.19C33.0186 142.19 30.3586 141.7 27.8852 140.72C25.4586 139.74 23.3819 138.41 21.6552 136.73L26.7652 130.99C29.6586 133.323 32.5519 134.49 35.4452 134.49C36.8919 134.49 38.0119 134.187 38.8052 133.58C39.6452 132.927 40.0652 132.04 40.0652 130.92C40.0652 130.033 39.8786 129.31 39.5052 128.75C39.1786 128.19 38.5252 127.653 37.5452 127.14C36.6119 126.627 35.1419 126.02 33.1352 125.32C29.7286 124.153 27.2319 122.683 25.6452 120.91C24.1052 119.09 23.3352 116.803 23.3352 114.05C23.3352 111.903 23.8952 109.967 25.0152 108.24C26.1352 106.513 27.7452 105.16 29.8452 104.18C31.9452 103.153 34.4186 102.64 37.2652 102.64ZM103.379 121.68C103.379 123.173 103.309 124.48 103.169 125.6H82.4491C82.7291 128.867 83.4525 131.13 84.6191 132.39C85.7858 133.65 87.4425 134.28 89.5891 134.28C90.9891 134.28 92.3191 134.023 93.5791 133.51C94.8391 132.997 96.2158 132.203 97.7091 131.13L102.119 137.08C98.2925 140.487 93.8358 142.19 88.7491 142.19C83.1491 142.19 78.8791 140.463 75.9391 137.01C73.0458 133.51 71.5991 128.703 71.5991 122.59C71.5991 116.617 72.9991 111.81 75.7991 108.17C78.5991 104.483 82.5425 102.64 87.6291 102.64C92.5291 102.64 96.3791 104.297 99.1791 107.61C101.979 110.877 103.379 115.567 103.379 121.68ZM92.8091 118.6C92.8091 115.66 92.4125 113.467 91.6191 112.02C90.8725 110.527 89.5891 109.78 87.7691 109.78C86.1358 109.78 84.8758 110.48 83.9891 111.88C83.1025 113.233 82.5658 115.637 82.3791 119.09H92.8091V118.6ZM139.221 103.83L128.861 141H116.121L105.551 103.83H116.821L122.561 132.81L128.511 103.83H139.221ZM173.445 121.68C173.445 123.173 173.375 124.48 173.235 125.6H152.515C152.795 128.867 153.518 131.13 154.685 132.39C155.851 133.65 157.508 134.28 159.655 134.28C161.055 134.28 162.385 134.023 163.645 133.51C164.905 132.997 166.281 132.203 167.775 131.13L172.185 137.08C168.358 140.487 163.901 142.19 158.815 142.19C153.215 142.19 148.945 140.463 146.005 137.01C143.111 133.51 141.665 128.703 141.665 122.59C141.665 116.617 143.065 111.81 145.865 108.17C148.665 104.483 152.608 102.64 157.695 102.64C162.595 102.64 166.445 104.297 169.245 107.61C172.045 110.877 173.445 115.567 173.445 121.68ZM162.875 118.6C162.875 115.66 162.478 113.467 161.685 112.02C160.938 110.527 159.655 109.78 157.835 109.78C156.201 109.78 154.941 110.48 154.055 111.88C153.168 113.233 152.631 115.637 152.445 119.09H162.875V118.6ZM199.193 102.78C200.407 102.78 201.48 102.967 202.413 103.34L200.663 113.7C199.683 113.42 198.703 113.28 197.723 113.28C195.81 113.28 194.34 114.027 193.313 115.52C192.287 116.967 191.493 119.137 190.933 122.03V141H180.153V103.83H189.603L190.443 110.34C191.283 107.913 192.45 106.047 193.943 104.74C195.437 103.433 197.187 102.78 199.193 102.78ZM226.648 141.07C223.988 150.73 217.501 155.887 207.188 156.54L205.998 149.05C209.218 148.583 211.621 147.743 213.208 146.53C214.795 145.363 216.055 143.52 216.988 141H213.138L203.198 103.83H214.258L219.998 134.14L226.368 103.83H237.218L226.648 141.07ZM285.979 103.83L279.189 141H266.449L262.319 113.49L258.189 141H245.589L238.589 103.83H249.159L252.519 132.88L257.419 103.83H267.709L272.119 132.88L275.829 103.83H285.979ZM311.636 102.64C314.529 102.64 316.792 103.62 318.426 105.58C320.106 107.493 320.946 110.13 320.946 113.49V141H310.166V114.96C310.166 113.42 309.932 112.347 309.466 111.74C308.999 111.087 308.346 110.76 307.506 110.76C306.572 110.76 305.662 111.157 304.776 111.95C303.936 112.697 303.049 113.817 302.116 115.31V141H291.336V89.06L302.116 87.94V107.89C303.422 106.117 304.846 104.81 306.386 103.97C307.926 103.083 309.676 102.64 311.636 102.64ZM359.615 121.68C359.615 123.173 359.545 124.48 359.405 125.6H338.685C338.965 128.867 339.688 131.13 340.855 132.39C342.021 133.65 343.678 134.28 345.825 134.28C347.225 134.28 348.555 134.023 349.815 133.51C351.075 132.997 352.451 132.203 353.945 131.13L358.355 137.08C354.528 140.487 350.071 142.19 344.985 142.19C339.385 142.19 335.115 140.463 332.175 137.01C329.281 133.51 327.835 128.703 327.835 122.59C327.835 116.617 329.235 111.81 332.035 108.17C334.835 104.483 338.778 102.64 343.865 102.64C348.765 102.64 352.615 104.297 355.415 107.61C358.215 110.877 359.615 115.567 359.615 121.68ZM349.045 118.6C349.045 115.66 348.648 113.467 347.855 112.02C347.108 110.527 345.825 109.78 344.005 109.78C342.371 109.78 341.111 110.48 340.225 111.88C339.338 113.233 338.801 115.637 338.615 119.09H349.045V118.6ZM385.363 102.78C386.577 102.78 387.65 102.967 388.583 103.34L386.833 113.7C385.853 113.42 384.873 113.28 383.893 113.28C381.98 113.28 380.51 114.027 379.483 115.52C378.457 116.967 377.663 119.137 377.103 122.03V141H366.323V103.83H375.773L376.613 110.34C377.453 107.913 378.62 106.047 380.113 104.74C381.607 103.433 383.357 102.78 385.363 102.78ZM421.546 121.68C421.546 123.173 421.476 124.48 421.336 125.6H400.616C400.896 128.867 401.619 131.13 402.786 132.39C403.952 133.65 405.609 134.28 407.756 134.28C409.156 134.28 410.486 134.023 411.746 133.51C413.006 132.997 414.382 132.203 415.876 131.13L420.286 137.08C416.459 140.487 412.002 142.19 406.916 142.19C401.316 142.19 397.046 140.463 394.106 137.01C391.212 133.51 389.766 128.703 389.766 122.59C389.766 116.617 391.166 111.81 393.966 108.17C396.766 104.483 400.709 102.64 405.796 102.64C410.696 102.64 414.546 104.297 417.346 107.61C420.146 110.877 421.546 115.567 421.546 121.68ZM410.976 118.6C410.976 115.66 410.579 113.467 409.786 112.02C409.039 110.527 407.756 109.78 405.936 109.78C404.302 109.78 403.042 110.48 402.156 111.88C401.269 113.233 400.732 115.637 400.546 119.09H410.976V118.6Z" fill="url(#paint0_linear_1_41)"/>
</g>
<defs>
<filter id="filter0_d_1_41" x="0.72998" y="0.439941" width="424.816" height="164.1" filterUnits="userSpaceOnUse" color-interpolation-filters="sRGB">
<feFlood flood-opacity="0" result="BackgroundImageFix"/>
<feColorMatrix in="SourceAlpha" type="matrix" values="0 0 0 0 0 0 0 0 0 0 0 0 0 0 0 0 0 0 127 0" result="hardAlpha"/>
<feOffset dy="4"/>
<feGaussianBlur stdDeviation="2"/>
<feColorMatrix type="matrix" values="0 0 0 0 0 0 0 0 0 0 0 0 0 0 0 0 0 0 0.07 0"/>
<feBlend mode="normal" in2="BackgroundImageFix" result="effect1_dropShadow_1_41"/>
<feBlend mode="normal" in="SourceGraphic" in2="effect1_dropShadow_1_41" result="shape"/>
</filter>
<linearGradient id="paint0_linear_1_41" x1="33.9788" y1="64.3333" x2="200.176" y2="92.5808" gradientUnits="userSpaceOnUse">
<stop stop-color="#3B82F6"/>
<stop offset="1" stop-color="#D946EF"/>
</linearGradient>
</defs>
</svg>
