<svg width="28" height="28" viewBox="0 0 28 28" fill="none" xmlns="http://www.w3.org/2000/svg">
<path d="M19.0632 2.33344C23.0182 2.33344 25.6666 5.10894 25.6666 9.23893V18.7706C25.6666 22.8901 23.0182 25.6668 19.0632 25.6668H8.94822C4.99322 25.6668 2.33322 22.8901 2.33322 18.7706V9.23893C2.33322 5.10894 4.99322 2.33344 8.94822 2.33344H19.0632ZM13.5916 8.07227C13.1132 8.07227 12.7166 8.4701 12.7166 8.94727V14.8401C12.7166 15.1434 12.8799 15.4351 13.1482 15.5868L17.7216 18.3168C17.8616 18.4101 18.0249 18.4451 18.1766 18.4451C18.4682 18.4451 18.7599 18.2934 18.9232 18.0134C19.1799 17.6039 19.0399 17.0673 18.6199 16.8118L14.4666 14.3384V8.94727C14.4666 8.4701 14.0816 8.07227 13.5916 8.07227Z" fill="#FDBA74"/>
</svg>
